<svg xmlns="http://www.w3.org/2000/svg" xmlns:xlink="http://www.w3.org/1999/xlink" id="Layer_1" x="0px" y="0px" width="100%" viewBox="0 0 200 200" xml:space="preserve"><path fill="#FEFEFE" opacity="1.000000" stroke="none" d=" M83.000000,201.000000   C55.698582,201.000000 28.397161,201.000000 1.047871,201.000000   C1.047871,134.443115 1.047871,67.886192 1.047871,1.000000   C31.686775,1.000000 62.374729,1.000000 93.324203,1.334869   C83.513702,2.975043 74.757996,7.125032 67.598953,14.291972   C54.885166,27.019773 42.343266,39.919125 29.701031,52.718643   C26.526728,55.932446 24.848660,59.488235 26.795530,63.954639   C28.704691,68.334534 32.331303,69.859695 36.869446,69.836136   C44.198986,69.798073 51.539513,70.030479 58.852463,69.675812   C61.306221,69.556808 64.207413,68.579559 66.009056,66.983963   C71.476730,62.141636 76.506699,56.805073 81.826912,51.542553   C72.565475,48.353554 68.885368,43.596436 69.974670,36.570221   C70.985153,30.052504 77.072639,25.990469 85.846664,25.990772   C95.342041,25.991102 104.842140,25.846407 114.328705,26.138111   C116.166618,26.194624 119.376846,27.820650 119.497520,28.978676   C119.880066,32.649609 116.610596,32.144646 114.167107,32.149254   C103.838829,32.168728 93.510361,32.129490 83.182228,32.173176   C79.175369,32.190128 76.261032,33.948727 76.081001,38.218418   C75.901253,42.481728 78.619781,44.800644 82.638260,44.757881   C94.998405,44.626362 106.621422,47.856361 118.181877,51.736908   C130.270508,55.794746 141.585495,54.619450 152.311890,47.026081   C156.075943,44.361462 160.936935,42.948849 165.508362,41.821575   C168.835403,41.001156 169.911789,39.565327 169.860092,36.409351   C169.753693,29.914251 169.838333,23.416166 169.825882,16.919344   C169.813812,10.624886 169.403336,9.892257 162.923676,10.326806   C144.800766,11.542194 128.118378,5.139540 111.000000,1.000000   C140.966324,1.000000 170.932632,1.000000 200.949478,1.000000   C200.949478,67.558098 200.949478,134.116241 200.949478,201.000000   C167.979813,201.000000 134.958572,201.000000 101.652893,200.646240   C111.327400,199.342331 120.079315,195.495789 127.158745,188.504456   C140.314835,175.512009 153.221634,162.266754 166.201309,149.096268   C169.195419,146.058136 170.816528,142.545212 169.019562,138.249771   C167.187927,133.871429 163.683670,132.129395 159.100235,132.143127   C151.603394,132.165604 144.100693,131.993423 136.613159,132.260010   C134.440536,132.337372 131.785141,133.060928 130.256378,134.470306   C124.682137,139.609192 119.490753,145.163391 114.053520,150.663803   C122.477585,153.105850 126.708679,158.193695 125.921860,164.658005   C125.099243,171.416412 118.984001,175.972168 110.631264,175.991104   C100.802002,176.013382 90.972641,175.992340 81.143326,175.994812   C78.765160,175.995407 76.041580,176.184875 76.083160,172.801300   C76.126175,169.301559 79.020622,169.846741 81.279457,169.840012   C91.775078,169.808762 102.271164,169.871933 112.766388,169.799881   C116.836029,169.771957 119.680130,167.662369 119.696854,163.526993   C119.713524,159.408600 116.919189,157.123383 112.842224,157.195541   C100.993652,157.405182 89.764458,154.462372 78.730476,150.646896   C66.100235,146.279449 54.424648,147.123184 43.205513,155.087997   C39.456192,157.749771 34.531384,158.975525 29.966450,160.191498   C26.918667,161.003357 25.882109,162.323196 25.950331,165.324829   C26.094145,171.652313 25.991724,177.985321 25.993679,184.316071   C25.995970,191.724304 26.011618,192.018036 33.579163,191.654633   C50.833553,190.826096 66.882668,196.013702 83.000000,201.000000  M122.599747,81.956085   C112.049126,69.708626 96.914925,66.304573 83.582169,73.180077   C70.732864,79.806282 63.839890,94.837097 67.593208,108.565872   C71.137657,121.530647 79.738747,129.628708 92.889275,131.737396   C106.037186,133.845673 116.960747,129.026993 124.133751,117.628189   C131.522491,105.886543 130.762543,94.009369 122.599747,81.956085  z"></path><path fill="#040404" opacity="1.000000" stroke="none" d=" M110.532394,1.000000   C128.118378,5.139540 144.800766,11.542194 162.923676,10.326806   C169.403336,9.892257 169.813812,10.624886 169.825882,16.919344   C169.838333,23.416166 169.753693,29.914251 169.860092,36.409351   C169.911789,39.565327 168.835403,41.001156 165.508362,41.821575   C160.936935,42.948849 156.075943,44.361462 152.311890,47.026081   C141.585495,54.619450 130.270508,55.794746 118.181877,51.736908   C106.621422,47.856361 94.998405,44.626362 82.638260,44.757881   C78.619781,44.800644 75.901253,42.481728 76.081001,38.218418   C76.261032,33.948727 79.175369,32.190128 83.182228,32.173176   C93.510361,32.129490 103.838829,32.168728 114.167107,32.149254   C116.610596,32.144646 119.880066,32.649609 119.497520,28.978676   C119.376846,27.820650 116.166618,26.194624 114.328705,26.138111   C104.842140,25.846407 95.342041,25.991102 85.846664,25.990772   C77.072639,25.990469 70.985153,30.052504 69.974670,36.570221   C68.885368,43.596436 72.565475,48.353554 81.826912,51.542553   C76.506699,56.805073 71.476730,62.141636 66.009056,66.983963   C64.207413,68.579559 61.306221,69.556808 58.852463,69.675812   C51.539513,70.030479 44.198986,69.798073 36.869446,69.836136   C32.331303,69.859695 28.704691,68.334534 26.795530,63.954639   C24.848660,59.488235 26.526728,55.932446 29.701031,52.718643   C42.343266,39.919125 54.885166,27.019773 67.598953,14.291972   C74.757996,7.125032 83.513702,2.975043 93.792862,1.334869   C99.354927,1.000000 104.709862,1.000000 110.532394,1.000000  z"></path><path fill="#030303" opacity="1.000000" stroke="none" d=" M83.467941,201.000000   C66.882668,196.013702 50.833553,190.826096 33.579163,191.654633   C26.011618,192.018036 25.995970,191.724304 25.993679,184.316071   C25.991724,177.985321 26.094145,171.652313 25.950331,165.324829   C25.882109,162.323196 26.918667,161.003357 29.966450,160.191498   C34.531384,158.975525 39.456192,157.749771 43.205513,155.087997   C54.424648,147.123184 66.100235,146.279449 78.730476,150.646896   C89.764458,154.462372 100.993652,157.405182 112.842224,157.195541   C116.919189,157.123383 119.713524,159.408600 119.696854,163.526993   C119.680130,167.662369 116.836029,169.771957 112.766388,169.799881   C102.271164,169.871933 91.775078,169.808762 81.279457,169.840012   C79.020622,169.846741 76.126175,169.301559 76.083160,172.801300   C76.041580,176.184875 78.765160,175.995407 81.143326,175.994812   C90.972641,175.992340 100.802002,176.013382 110.631264,175.991104   C118.984001,175.972168 125.099243,171.416412 125.921860,164.658005   C126.708679,158.193695 122.477585,153.105850 114.053520,150.663803   C119.490753,145.163391 124.682137,139.609192 130.256378,134.470306   C131.785141,133.060928 134.440536,132.337372 136.613159,132.260010   C144.100693,131.993423 151.603394,132.165604 159.100235,132.143127   C163.683670,132.129395 167.187927,133.871429 169.019562,138.249771   C170.816528,142.545212 169.195419,146.058136 166.201309,149.096268   C153.221634,162.266754 140.314835,175.512009 127.158745,188.504456   C120.079315,195.495789 111.327400,199.342331 101.184235,200.646240   C95.311958,201.000000 89.623917,201.000000 83.467941,201.000000  z"></path><path fill="#040404" opacity="1.000000" stroke="none" d=" M122.810066,82.252586   C130.762543,94.009369 131.522491,105.886543 124.133751,117.628189   C116.960747,129.026993 106.037186,133.845673 92.889275,131.737396   C79.738747,129.628708 71.137657,121.530647 67.593208,108.565872   C63.839890,94.837097 70.732864,79.806282 83.582169,73.180077   C96.914925,66.304573 112.049126,69.708626 122.810066,82.252586  M96.134026,84.355095   C95.314804,84.838493 94.540726,85.433128 93.668884,85.786835   C88.799828,87.762245 86.339584,91.562927 87.035896,96.151489   C87.721611,100.670250 91.440712,103.800301 96.470406,104.070847   C97.298927,104.115410 98.320679,103.780533 98.922661,104.153877   C100.168983,104.926796 101.193039,106.058098 102.308495,107.042030   C101.133102,108.106522 100.080093,109.856262 98.756798,110.092583   C96.017242,110.581856 93.084084,109.964050 90.332260,110.418045   C89.088005,110.623329 87.279739,112.247337 87.207077,113.327263   C87.137375,114.363213 88.851326,115.709122 90.036972,116.564674   C90.693581,117.038467 91.873795,116.786613 92.903831,116.868690   C93.000984,118.146576 92.750267,119.338371 93.223694,120.045090   C93.972260,121.162537 95.079300,122.309273 96.286079,122.741325   C96.928757,122.971405 98.937164,121.663139 98.898674,121.158279   C98.598557,117.221550 101.395142,116.495071 104.092751,115.143517   C105.710106,114.333191 107.138046,112.504929 107.928879,110.799309   C110.827728,104.547211 106.320091,98.203232 98.903366,97.924088   C96.358719,97.828316 93.288910,98.098907 93.370499,94.627602   C93.456062,90.987160 96.760574,91.823792 99.130501,91.723801   C101.450645,91.625900 103.847946,91.940041 106.065689,91.434364   C107.159561,91.184952 108.436485,89.593063 108.661926,88.422127   C108.816422,87.619675 107.473549,86.220551 106.480476,85.597534   C105.594948,85.041985 104.270752,85.185669 104.163101,85.169968   C102.349152,82.710068 101.015724,80.901802 99.682297,79.093536   C98.514183,80.583527 97.346062,82.073517 96.134026,84.355095  z"></path><path fill="#F1F1F1" opacity="1.000000" stroke="none" d=" M96.155983,83.959305   C97.346062,82.073517 98.514183,80.583527 99.682297,79.093536   C101.015724,80.901802 102.349152,82.710068 104.163101,85.169968   C104.270752,85.185669 105.594948,85.041985 106.480476,85.597534   C107.473549,86.220551 108.816422,87.619675 108.661926,88.422127   C108.436485,89.593063 107.159561,91.184952 106.065689,91.434364   C103.847946,91.940041 101.450645,91.625900 99.130501,91.723801   C96.760574,91.823792 93.456062,90.987160 93.370499,94.627602   C93.288910,98.098907 96.358719,97.828316 98.903366,97.924088   C106.320091,98.203232 110.827728,104.547211 107.928879,110.799309   C107.138046,112.504929 105.710106,114.333191 104.092751,115.143517   C101.395142,116.495071 98.598557,117.221550 98.898674,121.158279   C98.937164,121.663139 96.928757,122.971405 96.286079,122.741325   C95.079300,122.309273 93.972260,121.162537 93.223694,120.045090   C92.750267,119.338371 93.000984,118.146576 92.903831,116.868690   C91.873795,116.786613 90.693581,117.038467 90.036972,116.564674   C88.851326,115.709122 87.137375,114.363213 87.207077,113.327263   C87.279739,112.247337 89.088005,110.623329 90.332260,110.418045   C93.084084,109.964050 96.017242,110.581856 98.756798,110.092583   C100.080093,109.856262 101.133102,108.106522 102.308495,107.042030   C101.193039,106.058098 100.168983,104.926796 98.922661,104.153877   C98.320679,103.780533 97.298927,104.115410 96.470406,104.070847   C91.440712,103.800301 87.721611,100.670250 87.035896,96.151489   C86.339584,91.562927 88.799828,87.762245 93.668884,85.786835   C94.540726,85.433128 95.314804,84.838493 96.155983,83.959305  z"></path></svg>