<svg xmlns="http://www.w3.org/2000/svg" xmlns:xlink="http://www.w3.org/1999/xlink" id="Layer_1" x="0px" y="0px" width="100%" viewBox="0 0 195 258" xml:space="preserve"><path fill="#FEFEFE" opacity="1.000000" stroke="none" d=" M0.999997,230.000000   C1.000000,153.770157 1.000000,77.540321 1.000000,1.000000   C32.020203,1.000000 63.041443,1.000000 94.327774,1.306917   C90.539673,3.728967 85.802765,5.105945 82.566788,8.103335   C74.230392,15.825092 65.062195,20.197235 53.462006,19.864246   C39.169086,19.453959 32.360039,28.883268 31.241241,41.711983   C30.308231,52.410343 27.396244,61.633869 20.779047,70.114769   C17.494139,74.324852 14.895998,79.488914 13.463410,84.632553   C11.042398,93.325096 14.339351,100.877007 21.440180,106.158936   C28.426119,111.355400 31.156996,118.046097 30.804491,126.415161   C30.741581,127.908730 30.839811,129.415771 30.957386,130.909210   C31.970100,143.772873 44.894943,155.816132 57.313717,154.456436   C64.763031,153.640823 70.983925,155.385574 76.149139,160.188858   C91.682854,174.634094 105.356010,174.368530 120.452042,160.441452   C125.127762,156.127792 130.730942,153.506485 137.708557,154.275726   C152.238419,155.877533 165.929184,144.026077 165.882431,129.290848   C165.849960,119.053940 168.672592,111.235664 176.939117,104.651802   C184.827713,98.368942 186.212982,89.631546 181.974258,80.304138   C179.732712,75.371521 176.711121,70.702591 173.475037,66.334427   C168.845993,60.086033 166.413223,53.228790 166.108505,45.558304   C165.544601,31.363655 159.153122,18.940634 140.788239,19.602659   C131.430267,19.940001 123.894081,16.332546 116.893089,10.243555   C112.541000,6.458397 107.004761,4.034734 102.000000,0.999999   C133.290985,1.000000 164.581955,1.000000 196.000000,1.000000   C196.000000,77.354179 196.000000,153.708435 195.653030,230.405426   C194.865936,229.343536 194.620636,227.838516 193.956375,226.549393   C184.569092,208.331573 175.124893,190.143066 166.092453,172.715317   C160.709351,176.024719 155.754440,180.257004 150.020111,182.279877   C143.625061,184.535812 136.046005,183.643829 129.859909,186.225174   C123.628906,188.825272 118.474602,194.006744 112.854271,198.065125   C112.627922,198.228546 112.460487,198.473572 112.495483,198.436386   C121.625671,216.562119 130.635986,234.597702 139.835052,252.536469   C141.068314,254.941422 143.254883,256.857513 145.000000,259.000000   C114.312439,259.000000 83.624878,259.000000 52.618088,258.692932   C54.289253,255.823654 56.603352,253.445496 58.190388,250.653976   C60.304947,246.934555 61.700603,242.814163 63.673512,239.005051   C70.674721,225.487762 77.789986,212.029556 84.518776,199.203293   C79.244629,195.175476 74.172699,191.214981 68.991287,187.403305   C67.608948,186.386398 65.888130,185.152710 64.328468,185.160568   C51.539940,185.225067 40.155041,181.972580 31.484745,171.586609   C29.776011,174.897385 28.344513,177.701080 26.886522,180.490936   C18.261089,196.995743 9.629511,213.497330 0.999997,230.000000  z"></path><path fill="#020202" opacity="1.000000" stroke="none" d=" M101.562500,0.999999   C107.004761,4.034734 112.541000,6.458397 116.893089,10.243555   C123.894081,16.332546 131.430267,19.940001 140.788239,19.602659   C159.153122,18.940634 165.544601,31.363655 166.108505,45.558304   C166.413223,53.228790 168.845993,60.086033 173.475037,66.334427   C176.711121,70.702591 179.732712,75.371521 181.974258,80.304138   C186.212982,89.631546 184.827713,98.368942 176.939117,104.651802   C168.672592,111.235664 165.849960,119.053940 165.882431,129.290848   C165.929184,144.026077 152.238419,155.877533 137.708557,154.275726   C130.730942,153.506485 125.127762,156.127792 120.452042,160.441452   C105.356010,174.368530 91.682854,174.634094 76.149139,160.188858   C70.983925,155.385574 64.763031,153.640823 57.313717,154.456436   C44.894943,155.816132 31.970100,143.772873 30.957386,130.909210   C30.839811,129.415771 30.741581,127.908730 30.804491,126.415161   C31.156996,118.046097 28.426119,111.355400 21.440180,106.158936   C14.339351,100.877007 11.042398,93.325096 13.463410,84.632553   C14.895998,79.488914 17.494139,74.324852 20.779047,70.114769   C27.396244,61.633869 30.308231,52.410343 31.241241,41.711983   C32.360039,28.883268 39.169086,19.453959 53.462006,19.864246   C65.062195,20.197235 74.230392,15.825092 82.566788,8.103335   C85.802765,5.105945 90.539673,3.728967 94.796432,1.306917   C97.041664,1.000000 99.083336,1.000000 101.562500,0.999999  M80.047844,135.585922   C88.696075,138.348145 97.368843,139.481339 106.543465,138.105042   C135.347092,133.784134 156.061325,105.398003 150.652084,77.122467   C144.799225,46.528027 115.551781,27.302773 86.029716,34.644184   C62.921406,40.390652 47.550915,59.013618 45.540508,83.701126   C43.808765,104.966713 57.704899,126.136002 80.047844,135.585922  z"></path><path fill="#020202" opacity="1.000000" stroke="none" d=" M0.999997,230.416656   C9.629511,213.497330 18.261089,196.995743 26.886522,180.490936   C28.344513,177.701080 29.776011,174.897385 31.484745,171.586609   C40.155041,181.972580 51.539940,185.225067 64.328468,185.160568   C65.888130,185.152710 67.608948,186.386398 68.991287,187.403305   C74.172699,191.214981 79.244629,195.175476 84.518776,199.203293   C77.789986,212.029556 70.674721,225.487762 63.673512,239.005051   C61.700603,242.814163 60.304947,246.934555 58.190388,250.653976   C56.603352,253.445496 54.289253,255.823654 52.149429,258.692932   C51.250000,259.000000 50.500000,259.000000 49.162224,258.733612   C47.030197,256.810577 45.140263,255.360443 44.004799,253.459625   C40.195938,247.083420 36.656273,240.546417 32.942749,233.945084   C25.851271,235.270447 19.031744,236.629089 12.179279,237.793976   C8.109562,238.485794 3.919739,239.142563 1.000000,235.000000   C1.000000,233.611115 1.000000,232.222214 0.999997,230.416656  z"></path><path fill="#020202" opacity="1.000000" stroke="none" d=" M145.375000,259.000000   C143.254883,256.857513 141.068314,254.941422 139.835052,252.536469   C130.635986,234.597702 121.625671,216.562119 112.495483,198.436386   C112.460487,198.473572 112.627922,198.228546 112.854271,198.065125   C118.474602,194.006744 123.628906,188.825272 129.859909,186.225174   C136.046005,183.643829 143.625061,184.535812 150.020111,182.279877   C155.754440,180.257004 160.709351,176.024719 166.092453,172.715317   C175.124893,190.143066 184.569092,208.331573 193.956375,226.549393   C194.620636,227.838516 194.865936,229.343536 195.653030,230.874084   C196.000000,232.066666 196.000000,233.133347 195.648285,234.741302   C193.214996,236.267731 191.125061,238.080963 189.053696,238.060013   C185.130905,238.020325 181.208313,236.984726 177.304123,236.262863   C164.197510,233.839523 164.354050,233.912308 157.602844,245.469055   C154.823959,250.225922 151.225616,254.504105 148.000000,259.000000   C147.250000,259.000000 146.500000,259.000000 145.375000,259.000000  z"></path><path fill="#FDFDFD" opacity="1.000000" stroke="none" d=" M1.000000,235.468689   C3.919739,239.142563 8.109562,238.485794 12.179279,237.793976   C19.031744,236.629089 25.851271,235.270447 32.942749,233.945084   C36.656273,240.546417 40.195938,247.083420 44.004799,253.459625   C45.140263,255.360443 47.030197,256.810577 48.787224,258.733612   C33.097874,259.000000 17.195749,259.000000 1.000000,259.000000   C1.000000,251.314941 1.000000,243.626160 1.000000,235.468689  z"></path><path fill="#FDFDFD" opacity="1.000000" stroke="none" d=" M148.468658,259.000000   C151.225616,254.504105 154.823959,250.225922 157.602844,245.469055   C164.354050,233.912308 164.197510,233.839523 177.304123,236.262863   C181.208313,236.984726 185.130905,238.020325 189.053696,238.060013   C191.125061,238.080963 193.214996,236.267731 195.648285,235.141296   C196.000000,242.951065 196.000000,250.902145 196.000000,259.000000   C180.312698,259.000000 164.625015,259.000000 148.468658,259.000000  z"></path><path fill="#FCFCFC" opacity="1.000000" stroke="none" d=" M79.702271,135.401230   C57.704899,126.136002 43.808765,104.966713 45.540508,83.701126   C47.550915,59.013618 62.921406,40.390652 86.029716,34.644184   C115.551781,27.302773 144.799225,46.528027 150.652084,77.122467   C156.061325,105.398003 135.347092,133.784134 106.543465,138.105042   C97.368843,139.481339 88.696075,138.348145 79.702271,135.401230  M94.981583,70.233910   C93.619377,72.505203 92.798782,75.839966 90.798622,76.858635   C83.243820,80.706245 84.955322,87.332901 84.880554,93.523483   C84.844330,96.523033 84.873070,99.523376 84.874527,102.523361   C84.877899,109.453323 86.721184,111.379128 93.625076,111.434242   C101.623878,111.498100 109.626709,111.340088 117.621109,111.542358   C121.033226,111.628693 123.060913,110.191063 123.901497,107.143463   C125.954597,99.699799 128.026123,92.251907 129.731430,84.724434   C131.232025,78.100449 128.630081,75.031860 121.751694,74.832962   C117.284874,74.703796 112.811287,74.808647 108.124336,74.808647   C108.424538,71.872772 109.350906,69.241798 108.781738,66.988602   C107.724701,62.804039 106.062912,58.699947 104.062355,54.870903   C103.476341,53.749290 100.606956,52.885071 99.317566,53.357822   C98.255310,53.747299 97.765953,56.239605 97.401680,57.883957   C96.551163,61.723175 95.928635,65.612900 94.981583,70.233910  M65.989296,94.501495   C65.989296,96.834618 65.945465,99.168701 65.996758,101.500694   C66.242119,112.655106 63.455540,111.602905 77.004585,111.698586   C79.946136,111.719360 81.161385,110.653877 81.077759,107.575890   C80.901299,101.081284 81.129494,94.576469 81.001877,88.079575   C80.769234,76.235542 83.450485,77.997475 70.315010,77.725479   C67.139427,77.659721 65.731415,78.639397 65.936333,82.008942   C66.168564,85.827789 65.989525,89.671646 65.989296,94.501495  z"></path><path fill="#020202" opacity="1.000000" stroke="none" d=" M95.097672,69.858040   C95.928635,65.612900 96.551163,61.723175 97.401680,57.883957   C97.765953,56.239605 98.255310,53.747299 99.317566,53.357822   C100.606956,52.885071 103.476341,53.749290 104.062355,54.870903   C106.062912,58.699947 107.724701,62.804039 108.781738,66.988602   C109.350906,69.241798 108.424538,71.872772 108.124336,74.808647   C112.811287,74.808647 117.284874,74.703796 121.751694,74.832962   C128.630081,75.031860 131.232025,78.100449 129.731430,84.724434   C128.026123,92.251907 125.954597,99.699799 123.901497,107.143463   C123.060913,110.191063 121.033226,111.628693 117.621109,111.542358   C109.626709,111.340088 101.623878,111.498100 93.625076,111.434242   C86.721184,111.379128 84.877899,109.453323 84.874527,102.523361   C84.873070,99.523376 84.844330,96.523033 84.880554,93.523483   C84.955322,87.332901 83.243820,80.706245 90.798622,76.858635   C92.798782,75.839966 93.619377,72.505203 95.097672,69.858040  z"></path><path fill="#030303" opacity="1.000000" stroke="none" d=" M65.989296,94.003067   C65.989525,89.671646 66.168564,85.827789 65.936333,82.008942   C65.731415,78.639397 67.139427,77.659721 70.315010,77.725479   C83.450485,77.997475 80.769234,76.235542 81.001877,88.079575   C81.129494,94.576469 80.901299,101.081284 81.077759,107.575890   C81.161385,110.653877 79.946136,111.719360 77.004585,111.698586   C63.455540,111.602905 66.242119,112.655106 65.996758,101.500694   C65.945465,99.168701 65.989296,96.834618 65.989296,94.003067  M74.639122,97.144218   C72.105873,97.626984 70.528084,98.940025 72.073349,101.499306   C72.550613,102.289749 74.927231,102.872643 75.678207,102.385391   C78.091530,100.819572 77.625496,98.903679 74.639122,97.144218  z"></path><path fill="#E3E3E3" opacity="1.000000" stroke="none" d=" M75.000374,97.245422   C77.625496,98.903679 78.091530,100.819572 75.678207,102.385391   C74.927231,102.872643 72.550613,102.289749 72.073349,101.499306   C70.528084,98.940025 72.105873,97.626984 75.000374,97.245422  z"></path></svg>