<svg xmlns="http://www.w3.org/2000/svg" xmlns:xlink="http://www.w3.org/1999/xlink" id="Layer_1" x="0px" y="0px" width="100%" viewBox="0 0 225 225" xml:space="preserve"><path fill="#FDFDFD" opacity="1.000000" stroke="none" d=" M226.000000,179.000000   C226.000000,194.645157 226.000000,210.290314 226.000000,225.936264   C150.999985,225.937057 75.999969,225.937057 1.000000,225.937057   C1.000000,210.561844 1.000000,195.249588 1.449471,179.613098   C22.631079,179.288864 43.363216,179.288864 64.283340,179.288864   C64.283340,165.277374 64.506546,151.813370 64.198883,138.361526   C64.016937,130.406494 58.669640,125.852318 50.536831,125.829758   C39.716000,125.799728 28.872337,126.254456 18.081181,125.687820   C9.179058,125.220383 3.436738,128.302597 1.000000,137.000000   C1.000000,91.706581 1.000000,46.413170 1.000000,1.059877   C75.894005,1.059877 150.788071,1.059877 226.000000,1.059877   C226.000000,46.020397 226.000000,91.041542 225.831268,136.224426   C223.005356,128.931458 219.667526,125.893158 213.541489,125.850937   C200.716309,125.762543 187.889648,125.762810 175.064468,125.850830   C168.938477,125.892876 163.276154,130.203659 163.071838,136.266953   C162.591980,150.507614 162.918228,164.775436 162.918228,179.391479   C172.984375,179.391479 182.777222,179.442032 192.569290,179.378143   C203.713211,179.305435 214.856461,179.130508 226.000000,179.000000  M84.508148,179.393875   C107.241882,179.393875 129.975616,179.393875 153.033722,179.393875   C153.033722,163.221603 153.034683,147.600952 153.031998,131.980301   C153.031769,130.648788 153.099655,129.308838 152.979050,127.987106   C152.120377,118.575424 145.349411,112.298264 135.701187,112.232872   C121.052528,112.133583 106.402603,112.174454 91.753387,112.217392   C80.882668,112.249252 74.025200,119.092003 73.976784,129.933640   C73.929955,140.421021 73.966248,150.908783 73.966103,161.396378   C73.966019,167.341888 73.966087,173.287399 73.966087,179.393890   C77.533821,179.393890 80.523140,179.393890 84.508148,179.393875  M142.067886,68.794487   C136.515747,53.074257 121.683495,44.505356 106.511993,48.253128   C90.482933,52.212730 80.538712,68.311043 84.348175,84.133263   C88.278580,100.457779 104.541481,110.454346 120.473465,106.338943   C137.227097,102.011307 146.566864,86.248779 142.067886,68.794487  M188.781982,121.012405   C189.939072,121.140747 191.093735,121.299484 192.253647,121.392685   C202.486633,122.214905 211.820267,116.756096 216.016983,107.507515   C220.143021,98.414642 218.080765,87.336540 210.977600,80.436920   C203.885345,73.547905 192.652405,71.724785 183.731628,76.014938   C175.437347,80.003792 169.598816,89.356674 170.226593,98.134186   C171.048157,109.621071 177.011871,117.236626 188.781982,121.012405  M8.941866,98.391640   C9.787816,112.189415 20.326405,121.990501 33.755249,121.468552   C46.624023,120.968376 57.017738,110.191940 56.883705,97.488449   C56.747433,84.572075 46.346325,74.016319 33.534954,73.792526   C19.593336,73.548996 9.474403,83.301262 8.941866,98.391640  z"></path><path fill="#000000" opacity="1.000000" stroke="none" d=" M1.000000,137.468658   C3.436738,128.302597 9.179058,125.220383 18.081181,125.687820   C28.872337,126.254456 39.716000,125.799728 50.536831,125.829758   C58.669640,125.852318 64.016937,130.406494 64.198883,138.361526   C64.506546,151.813370 64.283340,165.277374 64.283340,179.288864   C43.363216,179.288864 22.631079,179.288864 1.449471,179.144440   C1.000000,165.312439 1.000000,151.624878 1.000000,137.468658  z"></path><path fill="#000000" opacity="1.000000" stroke="none" d=" M226.000000,178.531342   C214.856461,179.130508 203.713211,179.305435 192.569290,179.378143   C182.777222,179.442032 172.984375,179.391479 162.918228,179.391479   C162.918228,164.775436 162.591980,150.507614 163.071838,136.266953   C163.276154,130.203659 168.938477,125.892876 175.064468,125.850830   C187.889648,125.762810 200.716309,125.762543 213.541489,125.850937   C219.667526,125.893158 223.005356,128.931458 225.831268,136.693085   C226.000000,150.687561 226.000000,164.375122 226.000000,178.531342  z"></path><path fill="#010101" opacity="1.000000" stroke="none" d=" M84.010307,179.393890   C80.523140,179.393890 77.533821,179.393890 73.966087,179.393890   C73.966087,173.287399 73.966019,167.341888 73.966103,161.396378   C73.966248,150.908783 73.929955,140.421021 73.976784,129.933640   C74.025200,119.092003 80.882668,112.249252 91.753387,112.217392   C106.402603,112.174454 121.052528,112.133583 135.701187,112.232872   C145.349411,112.298264 152.120377,118.575424 152.979050,127.987106   C153.099655,129.308838 153.031769,130.648788 153.031998,131.980301   C153.034683,147.600952 153.033722,163.221603 153.033722,179.393875   C129.975616,179.393875 107.241882,179.393875 84.010307,179.393890  z"></path><path fill="#010101" opacity="1.000000" stroke="none" d=" M142.149872,69.206131   C146.566864,86.248779 137.227097,102.011307 120.473465,106.338943   C104.541481,110.454346 88.278580,100.457779 84.348175,84.133263   C80.538712,68.311043 90.482933,52.212730 106.511993,48.253128   C121.683495,44.505356 136.515747,53.074257 142.149872,69.206131  z"></path><path fill="#020202" opacity="1.000000" stroke="none" d=" M188.383667,120.938904   C177.011871,117.236626 171.048157,109.621071 170.226593,98.134186   C169.598816,89.356674 175.437347,80.003792 183.731628,76.014938   C192.652405,71.724785 203.885345,73.547905 210.977600,80.436920   C218.080765,87.336540 220.143021,98.414642 216.016983,107.507515   C211.820267,116.756096 202.486633,122.214905 192.253647,121.392685   C191.093735,121.299484 189.939072,121.140747 188.383667,120.938904  z"></path><path fill="#020202" opacity="1.000000" stroke="none" d=" M8.935915,97.948784   C9.474403,83.301262 19.593336,73.548996 33.534954,73.792526   C46.346325,74.016319 56.747433,84.572075 56.883705,97.488449   C57.017738,110.191940 46.624023,120.968376 33.755249,121.468552   C20.326405,121.990501 9.787816,112.189415 8.935915,97.948784  z"></path></svg>